<?xml version="1.0" encoding="UTF-8" standalone="no"?>
<!-- Created with Inkscape (http://www.inkscape.org/) -->

<svg
   xmlns:dc="http://purl.org/dc/elements/1.1/"
   xmlns:cc="http://creativecommons.org/ns#"
   xmlns:rdf="http://www.w3.org/1999/02/22-rdf-syntax-ns#"
   xmlns:svg="http://www.w3.org/2000/svg"
   xmlns="http://www.w3.org/2000/svg"
   xmlns:sodipodi="http://sodipodi.sourceforge.net/DTD/sodipodi-0.dtd"
   xmlns:inkscape="http://www.inkscape.org/namespaces/inkscape"
   width="100"
   height="100"
   viewBox="0 0 99.999994 99.999994"
   id="svg5775"
   version="1.1"
   inkscape:version="0.92.3 (2405546, 2018-03-11)"
   sodipodi:docname="AUPS1.svg">
  <defs
     id="defs5777" />
  <sodipodi:namedview
     id="base"
     pagecolor="#ffffff"
     bordercolor="#666666"
     borderopacity="1.0"
     inkscape:pageopacity="0.0"
     inkscape:pageshadow="2"
     inkscape:zoom="5.6"
     inkscape:cx="-88.622643"
     inkscape:cy="51.925138"
     inkscape:document-units="px"
     inkscape:current-layer="layer2"
     showgrid="false"
     inkscape:window-width="3840"
     inkscape:window-height="2071"
     inkscape:window-x="-11"
     inkscape:window-y="-11"
     inkscape:window-maximized="1"
     units="px" />
  <metadata
     id="metadata5780">
    <rdf:RDF>
      <cc:Work
         rdf:about="">
        <dc:format>image/svg+xml</dc:format>
        <dc:type
           rdf:resource="http://purl.org/dc/dcmitype/StillImage" />
        <dc:title></dc:title>
      </cc:Work>
    </rdf:RDF>
  </metadata>
  <g
     inkscape:label="Layer 1"
     inkscape:groupmode="layer"
     id="layer1"
     transform="translate(0,-952.3622)" />
  <g
     inkscape:groupmode="layer"
     id="layer2"
     inkscape:label="Layer 2">
    <g
       id="g881">
      <rect
         ry="0.42713326"
         y="952.74792"
         x="0.42856452"
         height="99.400002"
         width="99.400002"
         id="rect834"
         style="fill:#385c90;fill-opacity:1;stroke:#008fc3;stroke-width:0.60000002;stroke-linecap:butt;stroke-linejoin:miter;stroke-miterlimit:4;stroke-dasharray:none;stroke-opacity:1"
         transform="translate(0,-952.3622)" />
      <path
         sodipodi:nodetypes="ccsc"
         inkscape:connector-curvature="0"
         id="path4321"
         d="m 25.640691,984.07559 c 7.95129,-3.51654 15.38428,-5.11987 23.69938,-5.46893 0.37744,6.8e-4 0.75223,-0.0148 1.1226,0.0148 8.85737,0.5221 16.23525,2.04438 23.11324,5.7518"
         style="fill:none;fill-rule:evenodd;stroke:#ffffff;stroke-width:1.86483037;stroke-linecap:butt;stroke-linejoin:miter;stroke-miterlimit:4;stroke-dasharray:none;stroke-opacity:1"
         transform="translate(0,-952.3622)" />
      <path
         sodipodi:nodetypes="cc"
         inkscape:connector-curvature="0"
         id="path4323"
         d="m 26.364421,983.01625 -0.18689,16.58201"
         style="fill:none;fill-rule:evenodd;stroke:#ffffff;stroke-width:1.86483037;stroke-linecap:butt;stroke-linejoin:miter;stroke-miterlimit:4;stroke-dasharray:none;stroke-opacity:1"
         transform="translate(0,-952.3622)" />
      <path
         style="fill:none;fill-rule:evenodd;stroke:#ffffff;stroke-width:1.86483037;stroke-linecap:butt;stroke-linejoin:miter;stroke-miterlimit:4;stroke-dasharray:none;stroke-opacity:1"
         d="m 72.912461,983.2944 -0.15902,16.30386"
         id="path4325"
         inkscape:connector-curvature="0"
         transform="translate(0,-952.3622)" />
      <g
         style="stroke:#ffffff;stroke-width:1.47966123;stroke-miterlimit:4;stroke-dasharray:none;stroke-opacity:1"
         id="g4415"
         transform="matrix(1.2610683,0,0,1.2595501,-1251.8875,-113.06522)">
        <path
           style="fill:none;fill-rule:evenodd;stroke:#ffffff;stroke-width:1.47966123;stroke-linecap:butt;stroke-linejoin:miter;stroke-miterlimit:4;stroke-dasharray:none;stroke-opacity:1"
           d="m 1021.0374,127.78238 3.047,-0.9565 2.0203,-0.44194 1.8309,-0.1894 3.0705,-0.25641"
           id="path4329"
           inkscape:connector-curvature="0"
           sodipodi:nodetypes="ccccc" />
        <path
           style="fill:none;fill-rule:evenodd;stroke:#ffffff;stroke-width:1.47966123;stroke-linecap:butt;stroke-linejoin:miter;stroke-miterlimit:4;stroke-dasharray:none;stroke-opacity:1"
           d="m 1022.001,127.64663 2.0483,5.36473"
           id="path4331"
           inkscape:connector-curvature="0"
           sodipodi:nodetypes="cc" />
        <path
           style="fill:none;fill-rule:evenodd;stroke:#ffffff;stroke-width:1.47966123;stroke-linecap:butt;stroke-linejoin:miter;stroke-miterlimit:4;stroke-dasharray:none;stroke-opacity:1"
           d="m 1030.0656,126.05722 c 0.027,1.78439 0.051,3.6103 0.063,5.55584"
           id="path4333"
           inkscape:connector-curvature="0"
           sodipodi:nodetypes="cc" />
        <path
           style="fill:none;fill-rule:evenodd;stroke:#ffffff;stroke-width:1.47966123;stroke-linecap:butt;stroke-linejoin:miter;stroke-miterlimit:4;stroke-dasharray:none;stroke-opacity:1"
           d="m 1023.3775,132.22357 2.2222,-0.34692 1.9571,-0.12627 3.5619,-0.1075"
           id="path4335"
           inkscape:connector-curvature="0"
           sodipodi:nodetypes="cccc" />
      </g>
      <path
         sodipodi:nodetypes="cccccc"
         inkscape:connector-curvature="0"
         id="path4353"
         d="m 26.169461,999.19166 v 1.94824 l 2.61936,2.6163 3.73415,-1.9483 1.95062,4.9541 -3.50955,1.7529"
         style="fill:none;fill-rule:evenodd;stroke:#ffffff;stroke-width:1.86483037;stroke-linecap:butt;stroke-linejoin:miter;stroke-miterlimit:4;stroke-dasharray:none;stroke-opacity:1"
         transform="translate(0,-952.3622)" />
      <path
         sodipodi:nodetypes="cccccc"
         style="fill:none;fill-rule:evenodd;stroke:#ffffff;stroke-width:1.86483037;stroke-linecap:butt;stroke-linejoin:miter;stroke-miterlimit:4;stroke-dasharray:none;stroke-opacity:1"
         d="m 72.705781,998.91336 v 1.94814 l -2.6195,2.6162 -3.73402,-1.9482 -1.95062,4.9541 3.98245,1.7529"
         id="path4355"
         inkscape:connector-curvature="0"
         transform="translate(0,-952.3622)" />
      <path
         sodipodi:nodetypes="ccccccc"
         style="fill:none;fill-rule:evenodd;stroke:#ffffff;stroke-width:1.86483037;stroke-linecap:butt;stroke-linejoin:miter;stroke-miterlimit:4;stroke-dasharray:none;stroke-opacity:1"
         d="m 67.516481,1007.2901 -0.98338,3.039 -1.43724,1.6642 -2.21582,1.3312 -3.23376,0.8319 -4.91061,0.3885 -4.75308,0.2674"
         id="path4359"
         inkscape:connector-curvature="0"
         transform="translate(0,-952.3622)" />
      <path
         inkscape:connector-curvature="0"
         id="path4361"
         d="m 31.788271,1007.4177 0.98338,3.039 1.43712,1.6642 2.21582,1.3312 3.23375,0.8319 4.91061,0.3883 5.53142,0.1492"
         style="fill:none;fill-rule:evenodd;stroke:#ffffff;stroke-width:1.86483037;stroke-linecap:butt;stroke-linejoin:miter;stroke-miterlimit:4;stroke-dasharray:none;stroke-opacity:1"
         sodipodi:nodetypes="ccccccc"
         transform="translate(0,-952.3622)" />
      <path
         sodipodi:nodetypes="cccccccccccccc"
         inkscape:connector-curvature="0"
         id="path4363"
         d="m 42.510131,1018.7538 c -0.98515,0.8661 -1.77332,1.8895 -1.77332,1.8895 l -0.51237,1.102 -0.11856,1.2203 0.19711,1.2594 0.63053,1.1415 0.90633,1.1808 0.55172,0.6692 0.31527,1.0233 0.0391,0.6692 -0.2758,1.1416 -0.35474,0.9052 -0.55172,0.8266 -0.59106,0.7477"
         style="fill:none;fill-rule:evenodd;stroke:#ffffff;stroke-width:1.86483037;stroke-linecap:butt;stroke-linejoin:miter;stroke-miterlimit:4;stroke-dasharray:none;stroke-opacity:1"
         transform="translate(0,-952.3622)" />
      <path
         style="fill:none;fill-rule:evenodd;stroke:#ffffff;stroke-width:1.86483037;stroke-linecap:butt;stroke-linejoin:miter;stroke-miterlimit:4;stroke-dasharray:none;stroke-opacity:1"
         d="m 50.628251,1018.7147 c -0.98514,0.8658 -1.77331,1.8893 -1.77331,1.8893 l -0.51237,1.1018 -0.11856,1.2202 0.19711,1.2598 0.63053,1.1416 0.90633,1.1806 0.55172,0.6692 0.31526,1.0233 0.0391,0.6692 -0.27579,1.1413 -0.35474,0.9055 -0.55172,0.8265 -0.59106,0.7479"
         id="path4365"
         inkscape:connector-curvature="0"
         sodipodi:nodetypes="cccccccccccccc"
         transform="translate(0,-952.3622)" />
      <path
         sodipodi:nodetypes="cccccccccccccc"
         inkscape:connector-curvature="0"
         id="path4367"
         d="m 58.470581,1018.6751 c -0.98527,0.8659 -1.77344,1.8894 -1.77344,1.8894 l -0.51224,1.102 -0.11856,1.2203 0.19697,1.2595 0.63054,1.1415 0.90646,1.1807 0.55172,0.6693 0.31526,1.0234 0.0391,0.6691 -0.27592,1.1414 -0.35461,0.9052 -0.55172,0.8266 -0.59118,0.748"
         style="fill:none;fill-rule:evenodd;stroke:#ffffff;stroke-width:1.86483037;stroke-linecap:butt;stroke-linejoin:miter;stroke-miterlimit:4;stroke-dasharray:none;stroke-opacity:1"
         transform="translate(0,-952.3622)" />
      <g
         style="stroke:#ffffff;stroke-width:1.47966123;stroke-miterlimit:4;stroke-dasharray:none;stroke-opacity:1"
         transform="matrix(-1.2610683,0,0,1.2595501,1350.5392,-113.02579)"
         id="g4421">
        <path
           sodipodi:nodetypes="ccccc"
           inkscape:connector-curvature="0"
           id="path4423"
           d="m 1021.0374,127.78238 3.047,-0.9565 2.0203,-0.44194 1.8309,-0.1894 3.0705,-0.25641"
           style="fill:none;fill-rule:evenodd;stroke:#ffffff;stroke-width:1.47966123;stroke-linecap:butt;stroke-linejoin:miter;stroke-miterlimit:4;stroke-dasharray:none;stroke-opacity:1" />
        <path
           sodipodi:nodetypes="cc"
           inkscape:connector-curvature="0"
           id="path4425"
           d="m 1022.001,127.64663 2.0483,5.36473"
           style="fill:none;fill-rule:evenodd;stroke:#ffffff;stroke-width:1.47966123;stroke-linecap:butt;stroke-linejoin:miter;stroke-miterlimit:4;stroke-dasharray:none;stroke-opacity:1" />
        <path
           sodipodi:nodetypes="cc"
           inkscape:connector-curvature="0"
           id="path4427"
           d="m 1030.0656,126.05722 c 0.027,1.78439 0.051,3.6103 0.063,5.55584"
           style="fill:none;fill-rule:evenodd;stroke:#ffffff;stroke-width:1.47966123;stroke-linecap:butt;stroke-linejoin:miter;stroke-miterlimit:4;stroke-dasharray:none;stroke-opacity:1" />
        <path
           sodipodi:nodetypes="cccc"
           inkscape:connector-curvature="0"
           id="path4429"
           d="m 1023.3775,132.22357 2.2222,-0.34692 1.9571,-0.12627 3.5619,-0.1075"
           style="fill:none;fill-rule:evenodd;stroke:#ffffff;stroke-width:1.47966123;stroke-linecap:butt;stroke-linejoin:miter;stroke-miterlimit:4;stroke-dasharray:none;stroke-opacity:1" />
      </g>
    </g>
  </g>
</svg>
