<?xml version="1.0" encoding="UTF-8" standalone="no"?>
<svg
   xmlns:dc="http://purl.org/dc/elements/1.1/"
   xmlns:cc="http://creativecommons.org/ns#"
   xmlns:rdf="http://www.w3.org/1999/02/22-rdf-syntax-ns#"
   xmlns:svg="http://www.w3.org/2000/svg"
   xmlns="http://www.w3.org/2000/svg"
   xmlns:sodipodi="http://sodipodi.sourceforge.net/DTD/sodipodi-0.dtd"
   xmlns:inkscape="http://www.inkscape.org/namespaces/inkscape"
   viewBox="0 0 50 50"
   width="100"
   height="100"
   id="svg2"
   version="1.1"
   inkscape:version="1.0.1 (3bc2e813f5, 2020-09-07)"
   sodipodi:docname="door.svg">
  <metadata
     id="metadata10">
    <rdf:RDF>
      <cc:Work
         rdf:about="">
        <dc:format>image/svg+xml</dc:format>
        <dc:type
           rdf:resource="http://purl.org/dc/dcmitype/StillImage" />
        <dc:title />
      </cc:Work>
    </rdf:RDF>
  </metadata>
  <defs
     id="defs8" />
  <sodipodi:namedview
     pagecolor="#ffffff"
     bordercolor="#666666"
     borderopacity="1"
     objecttolerance="10"
     gridtolerance="10"
     guidetolerance="10"
     inkscape:pageopacity="0"
     inkscape:pageshadow="2"
     inkscape:window-width="3840"
     inkscape:window-height="2066"
     id="namedview6"
     showgrid="false"
     inkscape:zoom="2.36"
     inkscape:cx="50"
     inkscape:cy="50"
     inkscape:window-x="-11"
     inkscape:window-y="-11"
     inkscape:window-maximized="1"
     inkscape:current-layer="layer1"
     inkscape:document-rotation="0" />
  <g
     inkscape:groupmode="layer"
     id="layer1"
     inkscape:label="Layer 1">
    <rect
       style="fill:#275e91;fill-opacity:1;fill-rule:nonzero;stroke:none;stroke-width:0.5;stroke-opacity:1"
       id="rect4142"
       width="50.423729"
       height="50.211864"
       x="6.7888682e-006"
       y="-0.1059343" />
    <path
       style="color:#000000;line-height:normal;font-family:'Bitstream Vera Sans';-inkscape-font-specification:'Bitstream Vera Sans';text-indent:0;text-align:start;text-transform:none;block-progression:tb;overflow:visible;fill:#ffffff"
       d="m 25.965593,12.935387 a 0.57188716,0.57188716 0 0 0 -0.03574,0.01788 l -8.577447,1.715488 a 0.57188716,0.57188716 0 0 0 -0.464613,0.55396 l 0,20.585879 a 0.57188716,0.57188716 0 0 0 0.464613,0.553961 l 8.577449,1.715489 a 0.57188716,0.57188716 0 0 0 0.679049,-0.55396 l 0,-24.016858 a 0.57188716,0.57188716 0 0 0 -0.643311,-0.571839 z m -0.500352,1.268748 0,22.623023 -7.433789,-1.483185 0,-19.656655 7.433789,-1.483183 z m 1.71549,0.446742 0,1.143661 4.57464,0 0,19.442218 -4.57464,0 0,1.14366 5.14647,0 a 0.57188716,0.57188716 0 0 0 0.57183,-0.571831 l 0,-20.585879 a 0.57188716,0.57188716 0 0 0 -0.57183,-0.571829 l -5.14647,0 z M 12.509718,18.99321 c -0.845396,1.819883 -1.340226,4.068679 -1.340226,6.522436 0,2.453757 0.49483,4.702553 1.340226,6.522435 l 1.036442,-0.464612 c -0.764878,-1.646551 -1.233009,-3.759673 -1.233009,-6.057823 0,-2.298149 0.468131,-4.411273 1.233009,-6.057823 L 12.509718,18.99321 Z m 24.767386,0 -1.036441,0.464613 c 0.764876,1.64655 1.233007,3.759674 1.233007,6.057823 0,2.29815 -0.468131,4.411272 -1.233007,6.057823 l 1.036441,0.464612 c 0.845395,-1.819882 1.340226,-4.068678 1.340226,-6.522435 0,-2.453757 -0.494831,-4.702553 -1.340226,-6.522436 z m -22.748111,0.857745 c -0.680377,1.580503 -1.072182,3.540377 -1.072182,5.664691 0,2.124315 0.391805,4.084187 1.072182,5.66469 l 1.054311,-0.464611 c -0.608528,-1.413599 -0.982833,-3.219797 -0.982833,-5.200079 0,-1.980281 0.374305,-3.786481 0.982833,-5.200079 l -1.054311,-0.464612 z m 20.728837,0 -1.054312,0.464612 c 0.608528,1.413598 0.982832,3.219798 0.982832,5.200079 0,1.980282 -0.374304,3.78648 -0.982832,5.200079 l 1.054312,0.464611 c 0.680376,-1.580503 1.072181,-3.540375 1.072181,-5.66469 0,-2.124314 -0.391805,-4.084188 -1.072181,-5.664691 z m -11.561688,5.646822 a 0.57188716,0.57188716 0 0 0 -0.07148,0.01788 0.57188716,0.57188716 0 0 0 -0.446741,0.571829 l 0,2.28732 a 0.57188716,0.57188716 0 1 0 1.143659,0 l 0,-2.28732 a 0.57188716,0.57188716 0 0 0 -0.625439,-0.589699 z"
       overflow="visible"
       id="path4"
       inkscape:connector-curvature="0" />
  </g>
  <g
     inkscape:groupmode="layer"
     id="layer2"
     inkscape:label="Layer 2" />
</svg>
