<?xml version="1.0" encoding="utf-8"?>
<!-- Generator: Adobe Illustrator 17.1.0, SVG Export Plug-In . SVG Version: 6.00 Build 0)  -->
<!DOCTYPE svg PUBLIC "-//W3C//DTD SVG 1.1//EN" "http://www.w3.org/Graphics/SVG/1.1/DTD/svg11.dtd">
<svg version="1.1" id="Слой_1" xmlns="http://www.w3.org/2000/svg" xmlns:xlink="http://www.w3.org/1999/xlink" x="0px" y="0px"
	 viewBox="0 0 237.4 75.5" enable-background="new 0 0 237.4 75.5" xml:space="preserve">
<rect x="0" y="0" fill="none" width="237.4" height="75.5"/>
<g>
	<path fill="#005694" d="M31.7,33.9c2,1.1,3.6,2.7,4.7,4.7c1.1,2,1.7,4.3,1.7,6.8c0,2.5-0.6,4.8-1.7,6.8c-1.1,2-2.7,3.6-4.7,4.7
		c-2,1.1-4.2,1.7-6.7,1.7c-2.3,0-4.4-0.5-6.3-1.5c-1.9-1-3.4-2.4-4.6-4.2c-1.2-1.8-1.9-3.8-2.1-6H7.3v11.4H3.6V32.5h3.6v11.1H12
		c0.3-2.2,1-4.1,2.2-5.9c1.2-1.7,2.7-3.1,4.6-4c1.9-1,3.9-1.5,6.2-1.5C27.5,32.2,29.7,32.8,31.7,33.9z M29.8,54
		c1.4-0.8,2.6-2,3.4-3.5c0.8-1.5,1.2-3.2,1.2-5.1c0-1.9-0.4-3.6-1.2-5.1c-0.8-1.5-2-2.7-3.4-3.5c-1.4-0.8-3-1.3-4.8-1.3
		c-1.7,0-3.3,0.4-4.8,1.3c-1.4,0.8-2.5,2-3.4,3.5c-0.8,1.5-1.2,3.2-1.2,5.1c0,1.9,0.4,3.6,1.2,5.1c0.8,1.5,1.9,2.7,3.4,3.5
		c1.4,0.8,3,1.3,4.8,1.3C26.8,55.2,28.4,54.8,29.8,54z"/>
	<path fill="#005694" d="M79.1,58.3l0-18.8l-9.3,15.7H68l-9.3-15.5v18.7h-3.5V32.5h3L69,50.6l10.6-18.1h3l0,25.8H79.1z"/>
	<path fill="#005694" d="M101.7,32.5h3.6v19.9l15.3-19.9h3.4v25.8h-3.6V38.4l-15.3,19.9h-3.4V32.5z"/>
	<path fill="#005694" d="M152.1,46.9h-5.4v11.3h-3.6V32.5h3.6v11.2h5.5l8.1-11.2h3.9L155,45l9.7,13.3h-4.2L152.1,46.9z"/>
	<path fill="#005694" d="M184,56.8c-2.1-1.1-3.7-2.7-4.9-4.7c-1.2-2-1.8-4.3-1.8-6.8c0-2.5,0.6-4.8,1.8-6.8c1.2-2,2.8-3.6,4.9-4.7
		c2.1-1.1,4.4-1.7,7-1.7c2,0,3.9,0.3,5.5,1c1.7,0.7,3.1,1.7,4.3,3l-2.4,2.3c-1.9-2-4.4-3.1-7.3-3.1c-1.9,0-3.6,0.4-5.2,1.3
		c-1.5,0.9-2.8,2-3.6,3.6c-0.9,1.5-1.3,3.2-1.3,5.1c0,1.9,0.4,3.6,1.3,5.1c0.9,1.5,2.1,2.7,3.6,3.6c1.5,0.9,3.3,1.3,5.2,1.3
		c2.9,0,5.3-1,7.3-3.1l2.4,2.3c-1.2,1.3-2.6,2.3-4.3,3c-1.7,0.7-3.5,1-5.5,1C188.4,58.6,186,58,184,56.8z"/>
	<g>
		<path fill="#005694" d="M3.9,72.1c-0.6-0.3-1-0.7-1.3-1.3c-0.3-0.5-0.5-1.1-0.5-1.8c0-0.7,0.2-1.3,0.5-1.8c0.3-0.5,0.8-1,1.3-1.3
			c0.6-0.3,1.2-0.5,1.9-0.5c0.5,0,1,0.1,1.5,0.3c0.4,0.2,0.8,0.4,1.1,0.8l-0.6,0.6c-0.5-0.5-1.2-0.8-1.9-0.8c-0.5,0-1,0.1-1.4,0.3
			c-0.4,0.2-0.7,0.5-1,0.9c-0.2,0.4-0.3,0.9-0.3,1.4c0,0.5,0.1,0.9,0.3,1.4c0.2,0.4,0.6,0.7,1,0.9c0.4,0.2,0.9,0.3,1.4,0.3
			c0.8,0,1.4-0.3,1.9-0.8l0.6,0.6c-0.3,0.4-0.7,0.6-1.1,0.8c-0.4,0.2-0.9,0.3-1.5,0.3C5.1,72.6,4.5,72.4,3.9,72.1z"/>
		<path fill="#005694" d="M12.5,65.6h1v5.3l4.1-5.3h0.9v6.9h-1v-5.3l-4.1,5.3h-0.9V65.6z"/>
		<path fill="#005694" d="M24.5,72.1c-0.6-0.3-1-0.7-1.3-1.3c-0.3-0.5-0.5-1.1-0.5-1.8c0-0.7,0.2-1.3,0.5-1.8c0.3-0.5,0.8-1,1.3-1.3
			c0.6-0.3,1.2-0.5,1.9-0.5c0.5,0,1,0.1,1.5,0.3c0.4,0.2,0.8,0.4,1.1,0.8l-0.6,0.6c-0.5-0.5-1.2-0.8-1.9-0.8c-0.5,0-1,0.1-1.4,0.3
			c-0.4,0.2-0.7,0.5-1,0.9c-0.2,0.4-0.3,0.9-0.3,1.4c0,0.5,0.1,0.9,0.3,1.4c0.2,0.4,0.6,0.7,1,0.9c0.4,0.2,0.9,0.3,1.4,0.3
			c0.8,0,1.4-0.3,1.9-0.8l0.6,0.6c-0.3,0.4-0.7,0.6-1.1,0.8c-0.4,0.2-0.9,0.3-1.5,0.3C25.7,72.6,25.1,72.4,24.5,72.1z"/>
		<path fill="#005694" d="M38.3,66.5H36v6h-1v-6h-2.4v-0.9h5.7V66.5z"/>
		<path fill="#005694" d="M47.3,71.7v0.9h-5v-6.9h4.9v0.9h-3.9v2.1h3.5v0.8h-3.5v2.2H47.3z"/>
		<path fill="#005694" d="M57.9,72.5l0-5l-2.5,4.2H55l-2.5-4.2v5h-0.9v-6.9h0.8l2.9,4.8l2.8-4.8h0.8l0,6.9H57.9z"/>
		<path fill="#005694" d="M68.6,68.6c0.4,0.4,0.7,0.9,0.7,1.6c0,0.8-0.2,1.3-0.7,1.7c-0.5,0.4-1.1,0.6-2,0.6h-2.8v-6.9h1V68h2
			C67.5,68,68.1,68.2,68.6,68.6z M67.8,71.4c0.3-0.3,0.5-0.6,0.5-1.1c0-0.9-0.6-1.4-1.8-1.4h-1.8v2.9h1.8
			C67,71.7,67.5,71.6,67.8,71.4z M70.3,65.6h1v6.9h-1V65.6z"/>
		<path fill="#005694" d="M82,65.6h5.2v0.8H83v2h2.1c0.8,0,1.4,0.2,1.9,0.5c0.4,0.3,0.6,0.8,0.6,1.5c0,0.7-0.2,1.2-0.7,1.6
			c-0.5,0.4-1.1,0.5-2,0.5h-3V65.6z M84.9,71.7c0.6,0,1-0.1,1.3-0.3c0.3-0.2,0.4-0.5,0.4-1c0-0.8-0.6-1.3-1.7-1.3H83v2.5H84.9z"/>
		<path fill="#005694" d="M96.9,71.7v0.9h-5v-6.9h4.9v0.9h-3.9v2.1h3.5v0.8h-3.5v2.2H96.9z"/>
		<path fill="#005694" d="M105.7,69.5c0.2,0.3,0.4,0.6,0.4,1c0,0.4-0.1,0.8-0.4,1.1c-0.3,0.3-0.6,0.5-1,0.7
			c-0.4,0.2-0.9,0.2-1.4,0.2c-0.5,0-0.9-0.1-1.4-0.2c-0.5-0.1-0.9-0.3-1.2-0.6L101,71c0.3,0.2,0.6,0.4,1,0.5
			c0.4,0.1,0.8,0.2,1.1,0.2c0.6,0,1-0.1,1.4-0.3c0.4-0.2,0.6-0.6,0.6-1c0-0.3-0.1-0.6-0.4-0.8c-0.3-0.2-0.7-0.3-1.2-0.3H102v-0.8
			h1.5c0.4,0,0.8-0.1,1-0.3c0.2-0.2,0.4-0.4,0.4-0.8c0-0.4-0.2-0.6-0.5-0.9c-0.3-0.2-0.7-0.3-1.2-0.3c-0.3,0-0.6,0-1,0.1
			c-0.3,0.1-0.6,0.2-0.9,0.4l-0.3-0.8c0.3-0.2,0.7-0.3,1.1-0.4c0.4-0.1,0.8-0.1,1.2-0.1c0.5,0,0.9,0.1,1.3,0.2
			c0.4,0.2,0.7,0.4,1,0.7c0.2,0.3,0.4,0.6,0.4,1c0,0.3-0.1,0.7-0.3,0.9c-0.2,0.3-0.5,0.5-0.8,0.6C105.2,69,105.5,69.3,105.7,69.5z"
			/>
		<path fill="#005694" d="M111.8,72.1c-0.6-0.3-1-0.7-1.3-1.3c-0.3-0.5-0.5-1.1-0.5-1.8c0-0.7,0.2-1.3,0.5-1.8
			c0.3-0.5,0.8-1,1.3-1.3c0.6-0.3,1.2-0.5,1.9-0.5c0.7,0,1.3,0.2,1.9,0.5c0.6,0.3,1,0.7,1.3,1.3c0.3,0.5,0.5,1.1,0.5,1.8
			c0,0.7-0.2,1.3-0.5,1.8c-0.3,0.5-0.8,1-1.3,1.3c-0.6,0.3-1.2,0.5-1.9,0.5C113,72.6,112.3,72.4,111.8,72.1z M115,71.4
			c0.4-0.2,0.7-0.5,1-0.9c0.2-0.4,0.3-0.9,0.3-1.4c0-0.5-0.1-0.9-0.3-1.4c-0.2-0.4-0.6-0.7-1-0.9c-0.4-0.2-0.9-0.3-1.4-0.3
			c-0.5,0-1,0.1-1.4,0.3c-0.4,0.2-0.7,0.5-1,0.9c-0.2,0.4-0.3,0.9-0.3,1.4c0,0.5,0.1,0.9,0.3,1.4c0.2,0.4,0.6,0.7,1,0.9
			c0.4,0.2,0.9,0.3,1.4,0.3C114.2,71.7,114.6,71.6,115,71.4z"/>
		<path fill="#005694" d="M127.6,65.6v6.9h-1v-6h-4v6h-1v-6.9H127.6z"/>
		<path fill="#005694" d="M137,70.8h-3.7l-0.8,1.7h-1l3.1-6.9h1l3.1,6.9h-1L137,70.8z M136.7,70l-1.5-3.4l-1.5,3.4H136.7z"/>
		<path fill="#005694" d="M143.7,72.1c-0.6-0.3-1-0.7-1.3-1.3c-0.3-0.5-0.5-1.1-0.5-1.8c0-0.7,0.2-1.3,0.5-1.8
			c0.3-0.5,0.8-1,1.3-1.3c0.6-0.3,1.2-0.5,1.9-0.5c0.5,0,1,0.1,1.5,0.3c0.4,0.2,0.8,0.4,1.1,0.8l-0.6,0.6c-0.5-0.5-1.2-0.8-1.9-0.8
			c-0.5,0-1,0.1-1.4,0.3c-0.4,0.2-0.7,0.5-1,0.9c-0.2,0.4-0.3,0.9-0.3,1.4c0,0.5,0.1,0.9,0.3,1.4c0.2,0.4,0.6,0.7,1,0.9
			c0.4,0.2,0.9,0.3,1.4,0.3c0.8,0,1.4-0.3,1.9-0.8l0.6,0.6c-0.3,0.4-0.7,0.6-1.1,0.8c-0.4,0.2-0.9,0.3-1.5,0.3
			C144.9,72.6,144.3,72.4,143.7,72.1z"/>
		<path fill="#005694" d="M158.3,65.6v6.9h-1v-3.1h-4v3.1h-1v-6.9h1v3h4v-3H158.3z"/>
		<path fill="#005694" d="M164.4,72.1c-0.6-0.3-1-0.7-1.3-1.3c-0.3-0.5-0.5-1.1-0.5-1.8c0-0.7,0.2-1.3,0.5-1.8
			c0.3-0.5,0.8-1,1.3-1.3c0.6-0.3,1.2-0.5,1.9-0.5c0.7,0,1.3,0.2,1.9,0.5c0.6,0.3,1,0.7,1.3,1.3c0.3,0.5,0.5,1.1,0.5,1.8
			c0,0.7-0.2,1.3-0.5,1.8c-0.3,0.5-0.8,1-1.3,1.3c-0.6,0.3-1.2,0.5-1.9,0.5C165.5,72.6,164.9,72.4,164.4,72.1z M167.6,71.4
			c0.4-0.2,0.7-0.5,1-0.9c0.2-0.4,0.3-0.9,0.3-1.4c0-0.5-0.1-0.9-0.3-1.4c-0.2-0.4-0.6-0.7-1-0.9c-0.4-0.2-0.9-0.3-1.4-0.3
			c-0.5,0-1,0.1-1.4,0.3c-0.4,0.2-0.7,0.5-1,0.9c-0.2,0.4-0.3,0.9-0.3,1.4c0,0.5,0.1,0.9,0.3,1.4c0.2,0.4,0.6,0.7,1,0.9
			c0.4,0.2,0.9,0.3,1.4,0.3C166.7,71.7,167.2,71.6,167.6,71.4z"/>
		<path fill="#005694" d="M175.6,72.1c-0.6-0.3-1-0.7-1.3-1.3c-0.3-0.5-0.5-1.1-0.5-1.8c0-0.7,0.2-1.3,0.5-1.8
			c0.3-0.5,0.8-1,1.3-1.3c0.6-0.3,1.2-0.5,1.9-0.5c0.5,0,1,0.1,1.5,0.3c0.4,0.2,0.8,0.4,1.1,0.8l-0.6,0.6c-0.5-0.5-1.2-0.8-1.9-0.8
			c-0.5,0-1,0.1-1.4,0.3c-0.4,0.2-0.7,0.5-1,0.9c-0.2,0.4-0.3,0.9-0.3,1.4c0,0.5,0.1,0.9,0.3,1.4c0.2,0.4,0.6,0.7,1,0.9
			c0.4,0.2,0.9,0.3,1.4,0.3c0.8,0,1.4-0.3,1.9-0.8l0.6,0.6c-0.3,0.4-0.7,0.6-1.1,0.8c-0.4,0.2-0.9,0.3-1.5,0.3
			C176.8,72.6,176.1,72.4,175.6,72.1z"/>
		<path fill="#005694" d="M189.4,66.5H187v6h-1v-6h-2.4v-0.9h5.7V66.5z"/>
		<path fill="#005694" d="M193.4,65.6h1v5.3l4.1-5.3h0.9v6.9h-1v-5.3l-4.1,5.3h-0.9V65.6z"/>
	</g>
	<path fill="#005694" d="M235.5,37.2h-3.3c0-17.3-14.1-31.4-31.4-31.4V2.6C220,2.6,235.5,18.2,235.5,37.2z"/>
	<path fill="#005694" d="M225.7,37.2h-3.3c0-11.9-9.7-21.6-21.6-21.6v-3.3C214.6,12.4,225.7,23.5,225.7,37.2z"/>
	<path fill="#D61726" d="M216,37.2h-3.3c0-6.5-5.3-11.8-11.8-11.8v-3.3C209.2,22.2,216,28.9,216,37.2z"/>
</g>
</svg>
